<?xml version="1.0" standalone="no"?>
<!DOCTYPE svg PUBLIC "-//W3C//DTD SVG 20010904//EN"
 "http://www.w3.org/TR/2001/REC-SVG-20010904/DTD/svg10.dtd">
<svg version="1.0" xmlns="http://www.w3.org/2000/svg"
 width="494.000000pt" height="114.000000pt" viewBox="0 0 494.000000 114.000000"
 preserveAspectRatio="xMidYMid meet">
<metadata>
Created by potrace 1.16, written by Peter Selinger 2001-2019
</metadata>
<g transform="translate(0.000000,114.000000) scale(0.100000,-0.100000)"
fill="#000000" stroke="none">
<path d="M1558 791 c-184 -39 -213 -346 -40 -428 73 -35 268 -16 260 25 -4 18
-17 19 -90 3 -90 -19 -175 12 -208 75 -22 43 -20 182 3 217 41 62 125 87 217
63 57 -15 70 -13 70 9 0 28 -137 52 -212 36z"/>
<path d="M1864 777 c-2 -7 -3 -105 -2 -217 l3 -205 153 -3 152 -3 0 26 0 25
-125 0 -125 0 0 75 0 74 98 3 c78 2 97 6 97 18 0 12 -19 16 -97 18 l-98 3 0
74 0 75 125 0 125 0 0 25 0 25 -150 0 c-113 0 -152 -3 -156 -13z"/>
<path d="M2250 570 l0 -221 23 3 c20 3 22 9 27 88 l5 85 69 0 69 0 37 -85 c32
-73 41 -85 64 -88 14 -2 26 0 26 5 0 4 -17 46 -37 92 -25 57 -34 86 -26 88 88
30 106 171 30 225 -29 21 -46 23 -159 27 l-128 3 0 -222z m257 148 c29 -27 31
-86 4 -119 -17 -22 -29 -24 -115 -27 l-96 -4 0 86 0 86 92 0 c80 0 95 -3 115
-22z"/>
<path d="M2622 768 c3 -21 9 -23 70 -26 l68 -3 2 -192 c3 -191 3 -192 26 -195
l22 -3 0 195 0 196 56 0 c63 0 96 13 88 35 -5 12 -34 15 -171 15 l-164 0 3
-22z"/>
<path d="M3025 778 c-3 -7 -4 -106 -3 -218 l3 -205 28 -3 27 -3 -2 218 c-3
218 -3 218 -26 221 -12 2 -24 -3 -27 -10z"/>
<path d="M3174 777 c-2 -7 -3 -105 -2 -217 l3 -205 25 0 c25 0 25 1 28 98 l3
97 93 0 c71 0 95 3 99 14 9 23 -2 26 -100 26 l-93 0 0 78 0 77 123 0 c119 0
122 1 125 23 3 22 3 22 -148 22 -113 0 -152 -3 -156 -13z"/>
<path d="M3510 784 c0 -3 8 -18 18 -32 10 -15 47 -76 83 -137 60 -103 64 -114
69 -185 5 -72 6 -75 30 -75 24 0 25 3 30 80 4 64 10 88 31 120 48 73 129 215
129 225 0 6 -11 10 -24 10 -20 0 -35 -19 -91 -115 -36 -63 -69 -117 -73 -119
-4 -2 -38 50 -77 115 -62 106 -73 119 -97 119 -16 0 -28 -3 -28 -6z"/>
<path d="M3956 774 c-3 -9 -6 -100 -6 -204 0 -104 3 -195 6 -204 3 -9 17 -16
30 -16 l24 0 2 174 3 174 130 -174 c97 -130 135 -174 151 -174 12 0 25 7 28
16 3 9 6 100 6 204 0 104 -3 195 -6 204 -3 9 -17 16 -30 16 l-24 0 0 -170 c0
-93 -3 -170 -7 -170 -5 1 -28 29 -53 63 -183 248 -206 277 -226 277 -12 0 -25
-7 -28 -16z"/>
<path d="M4420 570 l0 -223 113 5 c168 7 225 44 250 163 8 42 8 68 0 110 -25
119 -82 156 -250 163 l-113 5 0 -223z m254 147 c38 -25 56 -74 56 -149 0 -124
-48 -168 -182 -168 l-78 0 0 168 c0 93 2 171 4 173 2 2 42 2 88 -1 58 -3 93
-11 112 -23z"/>
</g>
</svg>
