<?xml version="1.0" encoding="utf-8"?>
<!-- Generator: Adobe Illustrator 19.2.1, SVG Export Plug-In . SVG Version: 6.00 Build 0)  -->
<svg version="1.1" id="layer" xmlns="http://www.w3.org/2000/svg" xmlns:xlink="http://www.w3.org/1999/xlink" x="0px" y="0px"
	 viewBox="0 0 652 652" style="enable-background:new 0 0 652 652;" xml:space="preserve">
<style type="text/css">
	.st0{fill-rule:evenodd;clip-rule:evenodd;}
</style>
<g>
	<path class="st0" d="M405.5,523.7c45.8-21.2,86-56.2,110-101.1c10.6-19.8,18.2-40.8,23.6-62.6c5-20.2,7.2-41,6-61.7
		c-0.1-0.8,2.7-1.5,1.3-2c-1.4-0.5-1.5,0.5-2.3,0.8c-33.7,16.1-67.5,33.1-101.4,49.4c-1.5,0.7-1.5,2.2-2,3.8
		c-12.3,37.5-40,71.1-76.9,86.2c-32.4,13.2-69.2,14.5-102.2,2.2c-0.6-0.2-1.3-0.1-1.4-0.7c-0.2-0.6-0.3-1.7,0.2-1.7
		c0.6-0.1,1.4-0.5,2.1-0.6c8.3-0.9,16,3.8,24.2,5c8,1.2,16.1,2.4,24.2,2.3c16.2-0.1,32.3-3.5,47.3-9.5c35-14,64.1-43.1,75.8-79.4
		c0.8-2.3,3.2-3.8,4.3-5.1c0.4-0.5-1.9,0.2-2.3,0.9c-0.5,0.8-1.6,0.6-2.8,1.2c-2.8,1.3-3.7,2.5-4.5,5
		c-21.3,62.3-93.6,95.4-155.4,77.1c-1.7-0.5-1.6-3.5,0.2-3.3c14,1,27.6,5.3,41.8,4.3c14.5-1.1,28.5-4.2,41.8-9.8
		c30.2-12.6,55.4-37.2,66.9-68.1c-2.5,0.2-4.3,1.6-6.3,2.6c-1,0.5-2.5,1.1-2.6,2.2c0,0.7,0.3,1.3-0.1,2
		c-22.5,48.5-81.1,75.4-132.4,61.8c-4.4,2.1-8.9,4.9-13.6,6.9c-5.1,2.2-10.3,5-15.4,7.5c-10.2,5-20.6,10-30.8,15.1
		c-20.2,10-40.7,19.7-60.8,29.8c3.6,1.2,5.8,1.4,8,3.2c65.3,53,160,62.8,235.4,27.3c43.2-20.3,79.6-54,102.5-96
		c19.5-35.8,28.8-76.2,29.2-116.8c0-1.6,3.4-2.8,3.7-1.1c0.1,0.8-0.2,1.1-0.1,1.9c5.2,91.7-51.9,179.9-134.3,217.2
		c-79.6,35.9-178.8,26.2-245.4-32.3c-1.6-1.4-1.3-2.9-4.2-1.2c-1.6,1-2.1,1-2,2.4c0.1,0.8,1.5-0.2,2.1,0.3
		c36.1,28.4,78.8,47.8,124.3,53.8C323.5,548.2,367.1,541.4,405.5,523.7 M147.9,492.3c1.9-1.6,7.8-3.3,5.5-3.7
		c-1.9-0.3-3.9,1.7-6.7,2.6C144.7,491.9,146.7,493.3,147.9,492.3 M411.3,362.8c0.7-1.3,1.4-1.3,0.1-0.7
		c-40.4,19.4-79.9,39.2-120.3,58.7c-1.6,0.8-2,1.8-0.1,2.1C339.2,431.1,389,406.5,411.3,362.8 M425.6,355.3c0,0.1,1.9-0.7,1.8-1
		C427.2,354.1,425.5,355.2,425.6,355.3 M411.2,537.7c92.8-40.4,156.1-140.7,148.2-242.9c-0.1-1.7,0.5-3.2-1.9-2.7
		c-1.7,0.4-2.7,1.2-3.2,0.5c-0.5-0.6,1.1-1.2,2-1.6c12.9-6.5,26.1-12.4,38.9-19.3c-3-6.3-4.6-12.2-9.1-17.2
		C422.7,334.6,259.1,414.2,95.9,494.8c2.6,5.9,4.7,9.4,6.9,15c0.8,2.1,2.7,1.9,4.4,1c12.2-6.2,24-11.9,36.4-17.7
		c1.5-0.7,2.6,0.2,0,1.3c-1.1,0.5-0.6,0.9-0.2,1.7c0.4,0.9,0.9,0.3,1.4,0.8C215.9,563.2,324,575.7,411.2,537.7"/>
	<path class="st0" d="M317.5,511.3c1.7,0.1,3.7-0.7,3.2-2.7c-0.5-2.1,0.6-3.5-0.7-5.4c-3.3-0.4-7.3,0.2-10.5-1.3
		c-0.6-2.8-0.6-5.8,0.8-8.4c2.8-1.1,5.7,0.2,8.6-0.6c0.7-2.2,0.6-4.7,0.1-6.9c-2.8-0.9-5.5,0.8-8.2-0.8c-0.8-2.2-0.5-5.3,0.5-7.4
		c2.6-1.2,5.3,0.1,7.9-0.6c0.8-2.6,0.6-4.8,0.1-7.7c-7-0.2-13.4-1.2-20.5-1.9c-2.4,13.7-5,26.4-6.7,40.4
		C300.1,511,309,510.6,317.5,511.3"/>
	<path class="st0" d="M342.8,484.3c2.3-2.5,1.8-9.2-2.2-9.4c-3.5-0.1-0.9,5.8-0.9,8.4C339.6,484.4,341.9,485.2,342.8,484.3
		 M329.6,511.2c4.6-0.5,8.7-0.4,13.1-1.8c-0.2-5.8-1.5-10.5-1.6-16.5c0-2.3,2.8-3,3.9-0.9c2.9,5.5,1.5,11.2,3.4,16.9
		c5-0.4,9.6-1.7,14.6-2.5c-0.2-5.4-2.3-9.2-3-14.6c-0.4-3.6-4.8-4-7-5.4c-1.2-0.8,2.9-2,3.1-3.4c0.2-0.8,0.3-1.9,0.5-3.1
		c0.9-6.9-4.6-13.4-11.5-12.6c-6.9,0.8-12.8,1.8-19.6,2.7c0,13.1,0.9,25.5,0.7,38.6C326.2,510.4,327.7,511.5,329.6,511.2"/>
	<path class="st0" d="M284.6,502c1.7-4,3.3-7,3.1-11.1c-5.1-0.7-9.3-2-14.3-3.3c-1,2.7-2.3,5.1-3.2,7.6c-0.7,1.9-5.7,1.9-5.6,0
		c0.8-8.8,5.5-18,8.4-26.5c0.6-1.8,5.1-0.8,5,1.2c-0.1,3.5-2,6.4-2.5,10c3.8,2,7,2.3,11.3,3.6c2,0.6,2.3,0,3.2-2.1
		c5.8-13.3-7.6-21.2-18.9-21.7c-5.8-0.3-12,2.2-14.1,8.1c-2.2,6.1-5.5,10.8-7.5,16.6c-0.8,2.5-1.2,5.5,0,7.8
		C256.1,503.8,273.2,507.3,284.6,502"/>
	<path class="st0" d="M377.9,502.4c5.3-2.3,9.3-3.4,14.2-5.8c-3.9-10.5-9.2-20.4-12.7-31c2.7-1.6,4.8-1.7,6.7-3.7
		c-1-2.5-1.6-4.7-3.8-6.9c-7.9,4.2-16.3,7.4-25.1,9.5c-0.2,3,0.6,5.3,1.7,7.9c2.8,0,4.4-1.8,7.6-1.6
		C371.1,480.8,372.7,492.5,377.9,502.4"/>
	<path class="st0" d="M94.2,490c0.6,0.2,1.7,0.4,2.4,0.1c40.9-20.6,82-40.7,123.2-60.7c20.5-9.9,40.9-19.8,61.4-29.8
		c20.2-9.8,40.4-19.7,60.6-29.7c20.5-10.2,41-20.3,61.6-30.4c20.1-9.8,40.3-19.8,60.5-29.6c20.6-10.1,41.3-20.1,61.9-30.3
		c10.2-5,20.4-10,30.6-15c5.1-2.5,10.3-5.1,15.4-7.6c2.6-1.2,5.4-2.8,7.7-3.8c2-0.9,6.2-1.9,5-4.3c-1.3-2.9-5.1,1.2-7.5,2.1
		c-2.3,0.8-5,2.4-7.5,3.6c-5,2.5-10.2,5.1-15.3,7.6c-10.3,5.1-20.6,10.1-30.8,15.2c-20.4,10-40.9,19.9-61.5,29.6
		c-20.7,9.8-41.2,20.1-61.7,30.4c-20.2,10.1-40.3,20.3-60.6,30.1c-40.8,19.4-81.4,39.3-122,59.3c-40.7,20-81.3,40.1-122.2,59.7
		c-0.7,0.3-1.1,0.9-1.5,1.5C93.4,488.7,93.7,489.8,94.2,490"/>
	<path class="st0" d="M405.6,490.5c5.4-3.2,9.1-4.6,13.5-8.4c-7.9-11.6-14.6-23.6-23-34.8c-3.5,3.3-7.2,3.3-10.1,7
		C393.1,466,398.5,478.9,405.6,490.5"/>
	<path class="st0" d="M425.8,478.1c4.2-3.4,9.1-6,12.1-10c-3.4-5-7.5-8.3-10.5-13.1c1-1.7,2-2.6,3.6-3.6c2.1-1.3,3.1-3.8,0.8-5.4
		c-1.3-0.9-1.6-1.8-3.2-2.5c-2.9,0.6-3.7,4.7-6.7,5.5c-2.6-1.2-3.7-4.4-4.5-6.9c1.5-2.5,4-3.4,5.8-5.6c-0.7-2.8-3.1-3.1-4.9-6.3
		c-5.5,4.4-10,9.6-16.9,13.3C409.2,455.5,417.1,466.9,425.8,478.1"/>
	<path class="st0" d="M450.1,456.9c4.8-3.4,7.6-7.4,11.1-12c-10.8-9-21.3-17.9-32.5-26.3c-2.5,3.9-5.2,5.6-7.8,8.9
		C430,438,440.2,447.1,450.1,456.9"/>
	<path class="st0" d="M177.3,431.9c-2.2-3.7-3.1-6.2-4.7-9.2c-2-3.7-2.8-7.8-5.9-10.7c-4.8,7.9-13.4,15-23.1,13.4
		c-11.2-1.8-18.8-11.7-23.1-21.5c-3.7-8.4-6.8-18.2-3.3-27.3c4-10.2,16-14.7,26.3-12.7c-1-4-2.7-6.5-4.3-9.5
		c-2-3.9-3.1-8.4-6.2-11.2c-17.2,1.5-33.4,11.4-41.2,26.9c-7.3,14.4-5.5,31.7,0.7,46.1c7.2,16.6,21.8,31.1,40.1,34
		C149.6,452.7,166.7,444.2,177.3,431.9"/>
	<path class="st0" d="M466.4,438.9c5.8-8,10.6-15.5,15.1-24.1c-1.8-2-4.2-2.9-6.7-4.1c-2.7,3-3.3,7.6-6.9,9.9c-2.4-1.6-5-2.6-7-4.7
		c0.5-2.9,3-4.7,3.6-7.6c-0.9-2.1-3.6-2.8-5.6-3.8c-2.8,1.4-2.5,5.2-5.3,6.9c-2.3-0.2-4.5-2.1-6.3-3.7c0.2-2.9,2.6-4.8,3.5-7.5
		c-1.7-2.2-4-2.9-6.8-4.3c-3.5,6.3-7,11.5-11.3,17.9C443.8,422.5,454.7,431.1,466.4,438.9"/>
	<path class="st0" d="M210.2,350.9c4.6-2.5,9-4,12.6-7.5c2.1-2.1,3.5-4.6,3.9-7.6c0.2-1.5-0.2-3-0.7-4.4c-0.9-2.7-2.7-5.1-5.3-6.3
		c-2-1-4.4-1.2-6.6-0.6c-5,1.4-9.4,3.8-13.9,6.5C203.5,337.7,206.3,344.6,210.2,350.9 M223.1,412.8c4.5-2.2,9-4.1,13.4-6.8
		c-2.5-6-5.5-11.4-8.2-17.2c-2.8-6-6-11.7-8.6-17.9c-1.3-3,4.1-4,6.7-5.4c2.5-1.4,5.7-2.8,8.5-4.6c6.5-3.9,11.8-8.9,16.3-15.3
		c7.7-11.1,5.4-26-2.9-36.4c-8.1-10.2-23.4-11.1-35.1-6.5c-11.9,4.7-23.3,11.2-35.2,16.5c-3,1.3-5.4,3.2-9,4.3
		c-3.6,1.1-5.1,3.5-3.2,6.6c3.6,6.1,5.9,11.7,8.8,17.5c11.9,23.9,23,47.7,35,71.5C214.4,417.4,218.5,415,223.1,412.8"/>
	<path class="st0" d="M484.6,390.6c0.4-0.4,1.3-1.5,1.1-2.2c-0.8-4.8-7.7-5.9-12.1-7.4c-4-1.4-9.1-3.3-13.2-3.4
		c-1.8,0-3.2,4-0.8,4.3c1.3,0.2,2,0.9,3,1.2c2.3,0.7,4.5,1.6,6.7,2.4c4.4,1.5,8.7,3.4,13.2,4.8C483.3,390.6,484.2,391,484.6,390.6
		 M484.7,409c3.8-11.2,10.1-21.8,10.9-33.7c0.2-3.3-3-6.3-6.2-6.8c-8.9-1.2-17.5-5.3-26.6-5c-2.7,0.1-4.9,2.1-6.5,4.3
		c-4.9,6.9-5.1,15.7-9.2,23.3C459.9,397.2,471.4,403.6,484.7,409"/>
	<path class="st0" d="M39,375c82-39.5,163.8-79.6,245.5-119.8c40.8-20,81.3-40.5,122.3-60.2c40.7-19.6,80.7-40.5,121.5-59.6
		c0.9-0.4-0.1-2.4-0.7-2.7c-0.5-0.3-1.4,0.1-2.1,0.5C363.2,213.3,200.3,291.8,38.1,372.1C36.6,372.8,37.6,375.7,39,375"/>
	<path class="st0" d="M77.8,325.9c-9.2-96.3,51.6-194.2,140.6-230.5c40.2-16.4,84.7-22.3,127.7-15.7c22.2,3.4,43.7,10.5,63.8,20.1
		c11.1,5.3,21.8,11.6,32,18.6c5.3,3.6,10.2,7.8,15.4,11.5c2.8,2,4.3,5.6,8,6.3c2.5,0.4,1.5-2.9-0.3-4.4
		c-36.3-31.3-80.7-49.7-127.7-57C294,68.1,250,77.6,210.5,95.7c-46.6,21.3-86.4,57.7-109.7,103.6C80.9,238.4,70.6,281.9,73.4,326
		C73.5,327.6,78,327.5,77.8,325.9 M171.2,280.5c2.6-1.3,4.9-3.1,5.6-6c16.8-72.6,99.9-119.1,170.6-96.4c4.5,1.4,8.6,2.1,13.1,4.6
		c4.2,2.3,8.2,2,12.1-0.3c8.4-4.9,16.8-8.5,25.2-12.9c8.4-4.3,16.9-8.3,25.4-12.4c8-3.9,16.1-7.7,24.1-11.7c2.3-1.1,4.5-2.4,6.9-3.2
		c2.3-0.8,5.5-2.7,3.3-4.4c-4.6-3.5-8.2-6.7-12.4-9.8c-7.9-5.7-15.7-11.2-24.1-16c-15.7-9-32-16.6-49.5-21.6
		c-67.6-19.3-143.2-4.9-199.2,37.5C112.6,172.9,77.1,248,83.2,323.5C112.2,309.4,141.9,294.6,171.2,280.5 M183,274.7
		c0.8-0.2,2.8-0.5,3-1.4c5.9-18.7,15.5-36.5,29-51c13.8-14.8,30.8-26.3,49.7-33.3c15.8-5.8,32.7-8.1,49.5-7.3
		c8.5,0.4,17,1.4,25.3,3.5c4.1,1,8,2.8,12.1,3.7c2.2,0.4,4.4,0.4,6.6-0.2c1.2-0.3,1.6-2,0-2.5c-1-0.3-1.3,0.4-2,0.1
		c-69-30.4-155.5,13.6-173.8,85.9C182,273.5,182,274.9,183,274.7 M195.5,268.8c4.5-1.8,4.8-6.4,6.7-10.2c1.8-3.7,3.7-7.4,5.9-11
		c4.5-7.5,9.9-14.5,16-20.8c11.8-12.1,26.2-21.4,41.8-27.8c13.5-5.5,28.2-8.1,42.9-8.1c7.4,0,14.8,0.7,22,2.3
		c3.6,0.8,7.3,1.5,11,1.7c1.9,0.1,3.4-0.1,5.6-1c2-0.8,0.5-2-1.1-2.5c-60.7-20.6-133.8,14.3-152.9,76.4
		C192.9,269.4,193.9,269.5,195.5,268.8 M205.2,263.4c1.1,0.4,1.5-0.6,2.2-1c42.8-20.3,85.2-41.3,127.6-62.4c0.7-0.4,1.6-0.2,1.7-1.5
		c0.1-1.3-0.8-0.3-1.6-0.5c-51.4-13.4-108.5,14.4-129.8,63.1C205,262.2,203.8,262.9,205.2,263.4 M34.6,368.7
		c164-79.5,327.6-159.6,491-240.3c-3.3-6.3-5.2-11.2-8.8-17.2c-5.3,2.8-10.2,4.9-15.5,7.7c-6.1,3.3-11.4,4.4-18.2,9.8
		c-71.8-72.9-187.6-88.7-279.1-47.4C109.5,124,47.4,230.3,60.7,334.2c-11.7,6.7-23.1,11.1-34.6,17.4
		C28.7,357.7,31.4,363.4,34.6,368.7"/>
	<path class="st0" d="M367.2,319.3c0.3-13.9-10.8-25.6-24.3-26.4c-6.4-0.4-12.5-0.3-18.7,0.3c-6.1,0.6-12.9,1.8-17.8-2.4
		c-1.3-1.1-1.7-2.9-1.9-4.6c-0.1-1.4,0.3-2.8,1-4.2c2.9-5.9,9.2-8.6,15.3-10.1c2.8-0.7,5.9-0.7,8.8-0.6c2.6,0,5.2,0.7,7.7,0.8
		c1.5,0-0.1-2.5-0.7-3.6c-0.6-1.2-1.5-2.9-2.1-4.4c-1.1-2.6-2.8-5.1-3.8-7.8c-1.2-3.1-2.9-6.7-6.6-5.6c-2.9,0.8-5.3,0.9-7.8,1.4
		c-12.5,2.9-24.5,8.8-33,18.6c-7.8,9.1-10.9,22.1-5.3,33.2c5.7,11.2,20.7,13.4,31.4,12.7c10.1-0.6,28.4-3.2,28,9.9
		c-0.4,13.8-17.4,17-27.6,17.4c-2.5,0.1-6.6-0.3-8.9-0.8c-1.2-0.3-4-0.3-3.1,1.3c0.8,1.4,1.2,2.5,1.8,3.6c3.3,5.5,5,12.2,9.1,17
		C334.8,365.8,366.6,348.2,367.2,319.3"/>
	<path class="st0" d="M409.9,322.1c10-5,16.8-8.2,27-13.2c-15-31.2-30.1-62.5-45.6-93.5c-9.7,5.4-17.9,8.2-26.9,13.7
		C379.8,260.1,394.3,291.3,409.9,322.1"/>
	<path class="st0" d="M496.9,236c-3.4-5.5-7.5-9.6-11.1-14.5c-2.3-3.1-4.8-5.9-7.2-9c-0.9-1.2-1.5-2-2.6-3.5c-1-1.3-1.9,0-1.6,1.2
		c3.2,11,4.8,21.7,7.9,32.8C487.6,241.3,492,238.6,496.9,236 M463.8,295.7c10-4.7,18.3-8.5,27.4-13.5c-1.7-7.2-2.9-12.9-4.7-20
		c7.1-4.5,14.8-7.3,22.2-11.4c5.1,5.2,8.6,10.8,13.5,16.4c10-4.7,18.9-8.8,29.2-14.3c-25.4-26.3-50.5-52.5-76.3-78.4
		c-9.3,5.5-17.7,8.1-26.5,13.6C453.8,224.1,458.4,259.9,463.8,295.7"/>
	<path class="st0" d="M155.7,263.6c8.6-5.6,12.3-17,10.9-26.9c-0.4-2.9-1.9-5.8-4.3-7.7c-1.7-1.4-3.3-2.3-5.9-2.9
		c-2.2,4.4-5.1,9.1-5.9,14.3c2.8,2.8,10.3,1.7,8.1,8.7c-8.9-1.7-18.7-3.1-27.1-8.2c-3.3-2,0.4-8.3,4.4-5.7c2.6,1.7,4,1.2,6.9,2.6
		c2.2-4.8,4-9.6,6.3-14.4c-1.2-2-3.5-2.4-5.4-3.4c-2.8-1.5-6.4-1.6-9.2,0c-6.1,3.4-9.6,10.1-11.5,16.6c-1.5,5.3-2.5,10.9-0.6,16.5
		c2.3,6.6,10.7,6.9,16.7,8.4C144.4,263,150.2,264.1,155.7,263.6"/>
	<path class="st0" d="M173.7,227.7c4.1-6.4,8.1-13.2,12.7-19.4c-1.2-2.8-3.5-3.9-5.8-5.3c-2.8,2.3-3.8,5.5-6.4,8.2
		c-2.7-0.9-5.7-3-7.6-5.4c1.5-2.8,3.5-4.5,4.7-7.5c-1.6-1.5-3.3-3.4-5.5-4.4c-2.6,2.3-3.4,6.2-6.8,7.8c-1.8-1.6-4-2.4-5.6-4.3
		c0.8-3.7,4.1-5.8,5.6-9.1c-1.3-2.3-3.4-2.7-5.8-5.1c-6.7,7.6-11.5,15.9-16.5,25.1C149.3,214.9,160.8,221.7,173.7,227.7"/>
	<path class="st0" d="M182.2,175.6c2.1-3.1,0.7-6.2-2.3-8.4c-3-2.2-6.9,2.3-3.5,4.6C178.9,173.5,179.3,175.6,182.2,175.6
		 M189.5,203.6c3.2-3.8,7.3-5.6,10-9.9c-3.6-4.2-8-7.1-11.7-11.1c-1.3-1.3-2-3.3-0.1-4.1c3.3-1.4,5,2.9,7.4,4.5
		c2.8,1.8,4.6,6.3,7.6,7.2c3.3-2.8,5.6-4.8,8.8-7.7c-2.3-4.6-6.2-8.5-9.5-12.5c-1-1.3-3-1.7-4.3-1.6c-0.9,0.1-3,1.5-3.3,0.8
		c-0.8-2,2-5.9,0-8.6c-0.9-1.1-1.2-2.3-2.2-3.3c-1.9-1.8-4.1-2.9-6.7-3.1c-3.3-0.2-6.4,0.8-8.9,3c-7,6.3-13.3,11.9-19.2,20.1
		C168.3,186,178.6,194.7,189.5,203.6"/>
	<path class="st0" d="M221.5,175.1c4.4-2.5,6.9-4.4,11.3-6.7c-4.4-10.3-10.8-19.5-15.8-29.5c2.5-2.6,5.9-2.9,8.5-5.5
		c-1-2.3-1.6-4.8-3.8-6.8c-11.2,5.7-21.9,12.5-32.1,19.8c1.7,2.9,2.1,4.6,4.2,6.8c3.9,0.1,4.8-5,8.8-5.6
		C209.1,156.5,215.3,165.9,221.5,175.1"/>
	<path class="st0" d="M243.8,162.4c4.7-2.1,8.5-2.7,12.3-5.3c-4.7-13.2-8.3-26.3-14.2-39c-5.2,2.4-10,3.8-15,6.4
		C231.7,137.6,238.4,149.6,243.8,162.4"/>
	<path class="st0" d="M358.8,148.9c4.4-6.4,5.4-13,7.7-20c0.6-2,1.2-3.9-0.8-5.4c-1.9-1.4-3.6-0.8-4.2,1c-2.7,7.6-4.4,14.3-7.1,22.1
		C353.5,149.3,357.2,151.3,358.8,148.9 M367,160.1c2.1,0.4,4.3-1.1,5.6-2.7c3.8-4.5,5.3-11.5,8.3-16.4c2.8-4.7,6-12.2,1.4-16.3
		c-9.2-8.2-21.7-9.2-32.9-13.3c-1.4-0.5-2.7,0.6-3.1,2c-3.3,11.7-4.9,23.5-7.7,35.2c-0.4,1.8-0.1,4,1.8,4.2
		C350,154,358,158.5,367,160.1"/>
	<path class="st0" d="M275,151.9c0.2-2.8-0.9-5.2-1.2-7.6c-0.3-2.9-2.3-6.1-1.5-8.7c0.8-2.5,5.8-1.1,7.7-2.6
		c1.9-1.4,1.1-6.4-1.1-7.2c-2.3-0.8-7,2.7-8.4,0.7c-1.4-1.9-2.8-6.4-0.5-7.6c2.5-1.3,6.4-1,8.8-1.9c2.1-0.8,1.3-5.5-0.1-7
		c-1.6-1.7-5.9,0.2-8.6,0.5c-2.8,0.2-5.9,1.2-8.9,1.9c-3,0.7-5.3,1.9-8.8,2.3c-3.3,0.4-1.5,3.9-0.7,6.5c3.5,11.2,7,22.6,10.5,34
		C267.1,154.7,270.7,153.1,275,151.9"/>
	<path class="st0" d="M302.2,148.8c0.3-8,0-15.3-0.2-23.3c-0.1-4.5-0.9-8.2-0.2-13.4c0.7-5-3.9-5.7-8.6-4.8
		c-2.4,0.5-3.9,0.6-6.7,0.4c-2.8-0.1-2.7,2.4-2.2,4.6c0.9,4,1,8.1,1.6,12.1c1.3,8.4,1.4,17.3,3.6,25.4
		C294.4,149.1,297.7,149.3,302.2,148.8"/>
	<path class="st0" d="M330.7,150.7c1.4,0.2,2.9-0.3,2.9-2c-0.1-2.1,1.3-3.4,0.6-5.5c-3.1-1.3-7.3,0.2-10.1-2.5
		c-0.3-2.6-0.1-5.6,1-8.1c3.1-0.8,6.1,0.7,9.1,0.4c1.1-2.1,1.1-4.4,1.4-6.6c-3-1.9-6.7-0.4-9.7-2.5c-0.6-2.3,0-5.1,0.7-7.4
		c3.9-1.1,7.3,1,11.1,0.9c0.9-2.5,1.2-4.6,1.3-7.6c-9.7-1.9-19.1-3.1-29.2-2.5c-0.2,13.3-0.7,25.9-1,39.2c0,1.8,1.6,2.6,3.3,2.5
		C318.4,148.8,324.5,149.9,330.7,150.7"/>
</g>
</svg>
