<?xml version="1.0" standalone="no"?>
<!DOCTYPE svg PUBLIC "-//W3C//DTD SVG 20010904//EN"
 "http://www.w3.org/TR/2001/REC-SVG-20010904/DTD/svg10.dtd">
<svg version="1.0" xmlns="http://www.w3.org/2000/svg"
 width="513.000000pt" height="119.000000pt" viewBox="0 0 513.000000 119.000000"
 preserveAspectRatio="xMidYMid meet">
<metadata>
Created by potrace 1.16, written by Peter Selinger 2001-2019
</metadata>
<g transform="translate(0.000000,119.000000) scale(0.100000,-0.100000)"
fill="#000000" stroke="none">
<path d="M510 1116 c-151 -29 -292 -58 -312 -65 -56 -19 -132 -92 -158 -153
-40 -92 -29 -149 89 -463 56 -148 113 -287 126 -307 48 -72 137 -118 230 -118
48 0 507 135 572 168 81 42 143 146 143 241 0 36 -81 491 -100 562 -15 56 -81
133 -135 159 -81 39 -146 36 -455 -24z m457 -24 c77 -49 88 -79 144 -375 64
-334 62 -369 -20 -460 -39 -43 -76 -58 -321 -133 -189 -58 -236 -69 -295 -69
-90 1 -144 28 -185 91 -15 25 -75 170 -132 322 -86 232 -103 286 -102 332 1
89 59 175 142 209 17 7 154 37 304 67 327 64 387 66 465 16z"/>
<path d="M1349 822 c-39 -20 -62 -41 -84 -77 -27 -44 -30 -58 -33 -147 -4 -90
-2 -104 22 -153 32 -64 95 -111 163 -121 70 -10 204 0 241 19 37 20 39 32 13
66 l-18 24 -46 -18 c-63 -24 -161 -18 -204 13 -89 63 -89 251 0 316 38 28 151
35 195 12 43 -22 49 -21 68 16 15 30 15 32 -2 45 -31 23 -86 33 -175 33 -76 0
-94 -4 -140 -28z"/>
<path d="M1750 585 l0 -255 188 2 187 3 3 24 c6 42 -20 51 -150 51 l-118 0 0
65 0 65 84 0 c107 0 116 4 116 46 l0 34 -100 0 -100 0 0 70 0 70 118 0 c130 0
156 9 150 51 l-3 24 -187 3 -188 2 0 -255z"/>
<path d="M2180 584 l0 -255 53 3 52 3 3 93 3 93 51 -3 51 -3 40 -92 39 -93 54
0 c30 0 54 5 54 10 0 6 -18 49 -40 98 l-39 87 30 23 c41 33 59 73 59 132 0 70
-24 116 -71 140 -33 17 -59 20 -189 20 l-150 0 0 -256z m280 156 c13 -13 20
-33 20 -60 0 -63 -24 -80 -115 -80 l-75 0 0 80 0 80 75 0 c62 0 79 -4 95 -20z"/>
<path d="M2600 806 c0 -41 11 -46 91 -46 l59 0 2 -212 3 -213 53 -3 52 -3 0
215 0 216 64 0 c86 0 96 5 96 46 l0 34 -210 0 -210 0 0 -34z"/>
<path d="M3070 585 l0 -256 53 3 52 3 0 250 0 250 -52 3 -53 3 0 -256z"/>
<path d="M3250 585 l0 -255 55 0 55 0 0 105 0 105 84 0 c107 0 116 4 116 46
l0 34 -100 0 -100 0 0 70 0 70 123 0 c67 0 127 4 133 8 7 4 13 16 15 27 3 14
33 -29 97 -140 l92 -160 0 -82 0 -83 55 0 55 0 0 83 0 82 95 163 c52 90 95
168 95 173 0 6 -25 9 -57 7 l-57 -3 -61 -106 c-33 -58 -63 -108 -68 -110 -4
-2 -36 46 -70 106 l-63 110 -247 3 -247 2 0 -255z"/>
<path d="M4145 828 c-3 -7 -4 -121 -3 -253 l3 -240 52 -3 53 -3 2 164 3 165
118 -164 118 -164 50 0 49 0 0 255 0 255 -55 0 -55 0 -2 -164 -3 -164 -115
161 -116 162 -47 3 c-32 2 -49 -1 -52 -10z"/>
<path d="M4670 585 l0 -255 138 0 c124 0 142 3 189 24 62 29 97 77 114 155 19
92 -3 213 -49 265 -9 10 -39 29 -67 42 -45 21 -64 24 -187 24 l-138 0 0 -255z
m270 160 c46 -24 64 -68 64 -160 1 -130 -40 -175 -158 -175 l-66 0 0 175 0
175 65 0 c39 0 78 -6 95 -15z"/>
</g>
</svg>
