<?xml version="1.0" standalone="no"?>
<!DOCTYPE svg PUBLIC "-//W3C//DTD SVG 20010904//EN"
 "http://www.w3.org/TR/2001/REC-SVG-20010904/DTD/svg10.dtd">
<svg version="1.0" xmlns="http://www.w3.org/2000/svg"
 width="1024.000000pt" height="339.000000pt" viewBox="0 0 1024.000000 339.000000"
 preserveAspectRatio="xMidYMid meet">
<metadata>
Created by potrace 1.16, written by Peter Selinger 2001-2019
</metadata>
<g transform="translate(0.000000,339.000000) scale(0.100000,-0.100000)"
fill="#000000" stroke="none">
<path d="M8674 2984 c-178 -29 -361 -103 -513 -204 -281 -188 -466 -466 -543
-818 -31 -140 -31 -414 0 -559 114 -527 470 -890 996 -1015 125 -30 457 -33
584 -5 252 56 460 162 632 323 200 189 335 441 387 724 25 140 23 392 -6 527
-59 282 -168 484 -365 678 -198 194 -416 304 -701 350 -112 18 -360 18 -471
-1z m433 -199 c245 -40 445 -144 612 -321 246 -258 349 -638 276 -1021 -85
-450 -422 -782 -875 -864 -103 -19 -344 -16 -438 5 -156 34 -288 89 -407 169
-82 55 -220 196 -280 286 -220 333 -245 816 -60 1181 101 200 298 389 499 480
79 36 217 77 301 89 97 14 273 12 372 -4z"/>
<path d="M8628 2514 c-5 -4 -8 -38 -8 -75 l0 -67 45 -6 c80 -12 75 33 75 -713
l0 -663 175 0 176 0 -3 723 c-3 677 -4 725 -21 750 -10 16 -30 33 -45 39 -31
13 -383 24 -394 12z"/>
<path d="M8313 2170 c-52 -12 -81 -37 -92 -77 -7 -24 -11 -231 -11 -570 l0
-533 170 0 170 0 0 595 0 595 -102 -1 c-57 -1 -118 -4 -135 -9z"/>
<path d="M9280 1586 l0 -596 170 0 171 0 -3 548 c-3 489 -5 550 -20 578 -25
46 -59 57 -195 62 l-123 4 0 -596z"/>
<path d="M3042 2570 c-90 -19 -142 -77 -142 -160 0 -148 162 -222 327 -150
118 51 120 230 3 287 -53 26 -128 35 -188 23z"/>
<path d="M310 2485 l0 -65 34 0 c76 0 116 -30 116 -86 0 -16 -70 -240 -156
-499 -85 -258 -189 -570 -229 -693 l-74 -222 187 2 187 3 41 140 c23 77 50
166 59 198 l16 57 242 -2 242 -3 59 -197 59 -198 198 0 198 0 -14 47 c-8 27
-104 370 -215 763 -110 393 -207 730 -215 748 -10 22 -29 39 -58 52 -39 18
-68 20 -359 20 l-318 0 0 -65z m532 -587 c47 -172 83 -316 81 -320 -2 -5 -85
-8 -183 -8 -98 0 -181 3 -183 8 -6 9 185 632 193 632 4 0 45 -141 92 -312z"/>
<path d="M1500 2487 l0 -64 41 -6 c23 -3 52 -15 65 -28 l24 -22 0 -724 0 -723
180 0 180 0 0 780 0 780 -29 32 -29 33 -216 3 -216 3 0 -64z"/>
<path d="M2160 2486 l0 -64 45 -6 c31 -5 51 -15 65 -33 20 -25 20 -38 20 -744
l0 -719 180 0 180 0 0 770 c0 855 3 817 -65 846 -26 10 -83 14 -230 14 l-195
0 0 -64z"/>
<path d="M3990 2149 c-179 -17 -420 -99 -405 -136 4 -10 20 -56 37 -103 17
-47 34 -89 38 -93 4 -4 31 2 60 13 130 51 326 76 394 50 37 -14 58 -53 60
-112 l1 -52 -145 -27 c-184 -34 -219 -44 -305 -83 -94 -43 -138 -84 -177 -164
-32 -64 -33 -71 -33 -187 0 -137 12 -186 58 -246 86 -113 285 -131 462 -42 38
20 89 51 111 70 l41 33 5 -51 c4 -34 12 -58 27 -72 20 -21 32 -22 221 -25
l200 -3 0 60 0 60 -34 7 c-19 3 -43 16 -54 27 -19 21 -20 41 -25 412 -5 401
-9 442 -50 520 -42 82 -127 129 -262 145 -99 11 -103 11 -225 -1z m190 -758
l0 -119 -37 -32 c-72 -64 -186 -97 -248 -74 -28 11 -45 60 -45 129 0 86 17
118 81 151 55 27 177 63 222 63 l27 1 0 -119z"/>
<path d="M5455 2136 c-67 -22 -137 -61 -212 -119 l-71 -55 -4 64 c-3 50 -9 70
-26 87 -22 21 -31 22 -222 25 l-200 3 0 -64 0 -64 39 -7 c21 -3 45 -13 52 -22
11 -14 15 -115 19 -538 l5 -521 178 -3 177 -2 0 415 0 415 61 45 c62 46 103
60 177 59 54 -1 81 -26 93 -85 4 -24 8 -225 9 -446 l0 -403 180 0 180 0 0 433
c0 237 -4 469 -10 515 -15 132 -59 210 -145 255 -50 26 -217 34 -280 13z"/>
<path d="M2830 2075 c0 -62 1 -65 24 -65 48 0 74 -17 85 -57 7 -24 11 -218 11
-536 l0 -497 178 2 177 3 3 549 c1 363 -1 562 -8 588 -8 27 -21 45 -43 58 -29
18 -51 20 -229 20 l-198 0 0 -65z"/>
<path d="M6145 2126 c-47 -20 -55 -51 -55 -201 l0 -135 59 0 58 0 9 41 c16 74
34 80 223 77 l163 -3 -261 -364 -261 -364 0 -128 0 -129 465 0 465 0 0 115 0
115 -266 0 c-214 0 -265 3 -261 13 3 7 118 174 256 371 l251 358 0 124 0 124
-407 0 c-315 -1 -415 -4 -438 -14z"/>
</g>
</svg>
